# xmcd CD database file
#
# Track frame offsets:
#	150
#	21841
#	46121
#	77122
#	104899
#	136414
#	169077
#	200569
#	232733
#	291092
#
# Disc length: 4457 seconds
#
# Revision: 0
# Processed by: cddbd v1.5.1PL2 Copyright (c) Steve Scherf et al.
# Submitted via: CDex 1.51
#
DISCID=8611670a
DTITLE=Jana Koubkova and EU Band feat. Peter Lipa - Live in Jazz Club
DYEAR=2005
DGENRE=Jazz
TTITLE0=I Can't Give You Anything But Love Baby
TTITLE1=The Man I Love (Chtela bych mit vagon spaci)
TTITLE2=Take The "A" Train
TTITLE3=Hejno racku (Gulls In Flight)
TTITLE4=A Child Is Born
TTITLE5=Summertime
TTITLE6=Return of Swallows To Enshu Country (Navrat vlastovek do kraje Ensu)
TTITLE7=Jen s jednou posteli (Single Bed Only)
TTITLE8=Aqua De Beber
TTITLE9=Zasela sem bazalicku (Sweet Basil I Did Sow)
EXTD=YEAR: 2005
EXTT0=
EXTT1=
EXTT2=
EXTT3=
EXTT4=
EXTT5=
EXTT6=
EXTT7=
EXTT8=
EXTT9=
PLAYORDER=
